<?xml version="1.0" standalone="no"?>
<!DOCTYPE svg PUBLIC "-//W3C//DTD SVG 20010904//EN"
 "http://www.w3.org/TR/2001/REC-SVG-20010904/DTD/svg10.dtd">
<svg version="1.0" xmlns="http://www.w3.org/2000/svg"
 width="100.000000pt" height="110.000000pt" viewBox="0 0 100.000000 110.000000"
 preserveAspectRatio="xMidYMid meet">

<g transform="translate(0.000000,110.000000) scale(0.100000,-0.100000)"
fill="#000000" stroke="none">
<path d="M144 1065 c-3 -8 10 -36 30 -64 l36 -49 0 -409 0 -409 -50 -49 c-38
-37 -47 -52 -38 -62 8 -10 84 -13 367 -13 l357 0 68 69 c103 104 108 101 -204
101 l-260 0 0 164 c0 114 -3 165 -11 168 -9 3 -9 9 0 25 12 23 16 497 5 527
-9 23 -292 24 -300 1z m292 -479 c2 -12 1 -13 -3 -1 -6 21 -19 19 -37 -7 -22
-32 -20 -57 7 -68 22 -10 22 -10 -3 -7 -35 3 -41 56 -10 87 24 24 44 22 46 -4z"/>
<path d="M500 962 c0 -15 13 -21 70 -31 304 -55 467 -399 310 -653 l-29 -48
28 0 c27 0 32 6 62 78 41 98 52 230 24 314 -57 176 -175 292 -344 342 -76 22
-121 21 -121 -2z"/>
<path d="M500 714 c0 -144 2 -165 15 -160 10 4 15 -1 16 -17 0 -22 0 -22 9 -1
9 23 36 38 45 25 3 -5 14 -7 25 -4 18 5 20 1 18 -24 -2 -24 -6 -29 -20 -25
-10 2 -18 9 -18 15 0 7 -4 7 -12 -1 -7 -7 -25 -12 -41 -12 -22 0 -28 4 -23 16
3 8 2 12 -4 9 -6 -4 -10 -68 -10 -156 l0 -149 138 0 c156 0 157 1 201 87 108
215 8 468 -215 543 -32 11 -74 20 -91 20 l-33 0 0 -166z"/>
<path d="M128 803 c-33 -35 -83 -134 -99 -196 -6 -27 -10 -87 -7 -140 3 -83 8
-100 45 -177 23 -47 53 -96 67 -109 l26 -24 0 27 c0 15 -17 56 -39 92 -46 76
-66 167 -58 257 8 83 20 122 62 192 21 34 35 69 33 83 l-3 24 -27 -29z"/>
<path d="M136 615 c-26 -77 -26 -165 -1 -235 l20 -55 3 88 c1 48 1 126 0 175
l-3 87 -19 -60z"/>
<path d="M561 534 c0 -11 3 -14 6 -6 3 7 2 16 -1 19 -3 4 -6 -2 -5 -13z"/>
<path d="M607 543 c-4 -3 -7 -11 -7 -17 0 -6 5 -5 12 2 6 6 9 14 7 17 -3 3 -9
2 -12 -2z"/>
</g>
</svg>
